<svg width="196" height="55" viewBox="0 0 196 55" fill="none" xmlns="http://www.w3.org/2000/svg">
<path d="M55.2637 37.3242L56.4844 36.5918C57.3438 38.1738 58.3366 38.9648 59.4629 38.9648C59.9447 38.9648 60.3971 38.8542 60.8203 38.6328C61.2435 38.4049 61.5658 38.1022 61.7871 37.7246C62.0085 37.347 62.1191 36.9466 62.1191 36.5234C62.1191 36.0417 61.9564 35.5697 61.6309 35.1074C61.1816 34.4694 60.3613 33.7012 59.1699 32.8027C57.972 31.8978 57.2266 31.2435 56.9336 30.8398C56.4258 30.1628 56.1719 29.4303 56.1719 28.6426C56.1719 28.0176 56.3216 27.4479 56.6211 26.9336C56.9206 26.4193 57.3405 26.0156 57.8809 25.7227C58.4277 25.4232 59.0202 25.2734 59.6582 25.2734C60.3353 25.2734 60.9668 25.4427 61.5527 25.7812C62.1452 26.1133 62.7702 26.7285 63.4277 27.627L62.2559 28.5156C61.7155 27.7995 61.2533 27.3275 60.8691 27.0996C60.4915 26.8717 60.0781 26.7578 59.6289 26.7578C59.0495 26.7578 58.5742 26.9336 58.2031 27.2852C57.8385 27.6367 57.6562 28.0697 57.6562 28.584C57.6562 28.8965 57.7214 29.1992 57.8516 29.4922C57.9818 29.7852 58.2194 30.1042 58.5645 30.4492C58.7533 30.6315 59.3717 31.11 60.4199 31.8848C61.6634 32.8027 62.5163 33.6198 62.9785 34.3359C63.4408 35.0521 63.6719 35.7715 63.6719 36.4941C63.6719 37.5358 63.2747 38.4408 62.4805 39.209C61.6927 39.9772 60.7324 40.3613 59.5996 40.3613C58.7272 40.3613 57.9362 40.1302 57.2266 39.668C56.5169 39.1992 55.8626 38.418 55.2637 37.3242ZM70.709 25.6348H72.1543V38.6133H77.6719V40H70.709V25.6348ZM89.8164 25.6348L96.5156 40H94.9727L92.7168 35.2734H86.5254L84.2793 40H82.6777L89.4648 25.6348H89.8164ZM89.6406 28.6816L87.1699 33.8867H92.082L89.6406 28.6816ZM101.268 37.3242L102.488 36.5918C103.348 38.1738 104.34 38.9648 105.467 38.9648C105.949 38.9648 106.401 38.8542 106.824 38.6328C107.247 38.4049 107.57 38.1022 107.791 37.7246C108.012 37.347 108.123 36.9466 108.123 36.5234C108.123 36.0417 107.96 35.5697 107.635 35.1074C107.186 34.4694 106.365 33.7012 105.174 32.8027C103.976 31.8978 103.23 31.2435 102.938 30.8398C102.43 30.1628 102.176 29.4303 102.176 28.6426C102.176 28.0176 102.326 27.4479 102.625 26.9336C102.924 26.4193 103.344 26.0156 103.885 25.7227C104.432 25.4232 105.024 25.2734 105.662 25.2734C106.339 25.2734 106.971 25.4427 107.557 25.7812C108.149 26.1133 108.774 26.7285 109.432 27.627L108.26 28.5156C107.719 27.7995 107.257 27.3275 106.873 27.0996C106.495 26.8717 106.082 26.7578 105.633 26.7578C105.053 26.7578 104.578 26.9336 104.207 27.2852C103.842 27.6367 103.66 28.0697 103.66 28.584C103.66 28.8965 103.725 29.1992 103.855 29.4922C103.986 29.7852 104.223 30.1042 104.568 30.4492C104.757 30.6315 105.376 31.11 106.424 31.8848C107.667 32.8027 108.52 33.6198 108.982 34.3359C109.445 35.0521 109.676 35.7715 109.676 36.4941C109.676 37.5358 109.279 38.4408 108.484 39.209C107.697 39.9772 106.736 40.3613 105.604 40.3613C104.731 40.3613 103.94 40.1302 103.23 39.668C102.521 39.1992 101.867 38.418 101.268 37.3242ZM115.287 27.0312V25.6348H123.168V27.0312H119.965V40H118.5V27.0312H115.287ZM129.238 25.6348H137.471V27.0508H130.674V31.543H137.412V32.9492H130.674V38.584H137.412V40H129.238V25.6348ZM143.961 40V25.6348H144.273L153.824 36.6309V25.6348H155.24V40H154.918L145.445 29.1406V40H143.961ZM168.625 25.6348L175.324 40H173.781L171.525 35.2734H165.334L163.088 40H161.486L168.273 25.6348H168.625ZM168.449 28.6816L165.979 33.8867H170.891L168.449 28.6816Z" fill="black"/>
<path d="M48 30.5913C48 32.0522 45.42 33.1478 45.06 34.487C44.7 35.887 46.32 38.0783 45.6 39.2957C44.88 40.513 42.06 40.2087 41.04 41.2435C40.02 42.2174 40.32 44.9565 39.06 45.687C37.8 46.4174 35.52 44.7739 34.08 45.1391C32.7 45.5043 31.56 48 30.06 48C28.56 48 27.42 45.4435 26.04 45.0783C24.6 44.713 22.32 46.2957 21.06 45.6261C19.8 44.8956 20.1 42.1565 19.08 41.1826C18.06 40.1478 15.24 40.4522 14.46 39.2348C13.74 38.0174 15.36 35.7652 15 34.3652C14.64 33.0261 12 31.9304 12 30.4696C12 29.0087 14.58 27.913 14.94 26.5739C15.3 25.1739 13.68 22.9217 14.4 21.7043C15.12 20.487 17.94 20.7304 18.96 19.7565C19.98 18.7826 19.68 16.0435 20.94 15.313C22.2 14.5826 24.48 16.2261 25.92 15.8609C27.3 15.4957 28.44 13 29.94 13C31.44 13 32.58 15.5565 33.96 15.9217C35.4 16.287 37.68 14.7043 38.94 15.3739C40.2 16.1043 39.9 18.8435 40.92 19.8174C41.94 20.7913 44.76 20.5478 45.54 21.7652C46.26 22.9826 44.64 25.2348 45 26.6348C45.42 27.9739 48 29.1304 48 30.5913Z" fill="#BFB5FF"/>
<path d="M41 34.8395C40.4709 36.6516 39.4714 38.3429 38.1193 39.7321C36.7671 41.1214 35.0034 42.1482 33.0633 42.6314C29.2419 43.6582 24.8326 42.5106 22.0106 39.5509C20.5997 38.1013 19.659 36.1684 19.2475 34.2355C18.8359 32.2422 18.9535 30.249 19.4826 28.3765C19.953 26.504 20.8936 24.8128 22.1282 23.3631C23.3628 21.9135 25.0677 20.8262 26.949 20.2826C28.8303 19.7994 30.9468 19.9202 32.8281 20.7658C34.7094 21.6115 36.3555 23.1215 37.1786 25.2356C38.0017 27.2893 38.0017 29.7054 37.1198 31.759C36.6495 32.7859 36.0028 33.7523 35.1797 34.4771C34.2979 35.3228 33.2396 35.806 32.0638 36.0476C30.9468 36.2892 29.7122 36.2288 28.654 35.806C27.5369 35.4436 26.5375 34.7791 25.832 33.8731C25.0089 32.9671 24.5386 31.759 24.421 30.551C24.3035 29.3429 24.5974 28.1349 25.2441 27.1081C25.5381 26.6249 25.9496 26.1416 26.3611 25.8396C26.8315 25.4168 27.3606 25.1752 27.9485 24.994C29.0655 24.692 30.3001 24.8128 31.2408 25.4168C31.7111 25.7188 32.1226 26.0812 32.4166 26.504C32.7693 26.9873 32.9457 27.5309 33.0045 28.0745C33.1221 29.1617 32.6517 30.249 31.8875 30.7926L31.6523 30.551C32.1814 29.8262 32.2402 28.9201 32.005 28.1953C31.8875 27.8329 31.6523 27.5309 31.4171 27.2893C31.1232 27.0477 30.8292 26.8665 30.5353 26.7457C29.8886 26.504 29.1831 26.5644 28.5952 26.8061C28.3012 26.9269 28.0073 27.1685 27.8897 27.3497C27.6545 27.6517 27.4782 27.8933 27.3606 28.1953C26.8315 29.4033 27.1254 30.9134 28.0073 31.6986C28.9479 32.6047 30.3001 33.0275 31.5347 32.7255C32.1226 32.6047 32.7105 32.3026 33.1808 31.8798C33.71 31.3966 34.1215 30.853 34.4742 30.249C35.1209 28.9805 35.2385 27.4101 34.7682 26.0812C34.533 25.3564 34.1803 24.7524 33.6512 24.1484C33.1808 23.6047 32.5342 23.0611 31.8875 22.6987C30.5941 21.8531 28.9479 21.4907 27.3018 21.6115C25.6556 21.7323 24.0683 22.5779 22.8925 23.786C21.7167 25.0544 20.8348 26.6853 20.5409 28.3765C20.2469 30.1282 20.4233 31.8798 21.07 33.4503C21.6579 35.0207 22.6573 36.3496 23.8919 37.4368C25.0677 38.5241 26.4787 39.3697 28.0073 39.7925C29.5358 40.2757 31.1232 40.3965 32.7693 40.1549C34.3567 39.9133 35.944 39.3093 37.2962 38.2825C38.7072 37.316 39.883 35.9872 40.8824 34.4771L41 34.8395Z" fill="#FF3156"/>
<path d="M30.889 18.6769L30.9348 18.684C31.215 18.7279 31.4418 18.7618 31.6568 18.7618C31.8711 18.7618 32.0985 18.7279 32.3782 18.684L32.4239 18.6769C32.8199 18.6145 33.3525 18.5308 33.8685 18.6686C34.4088 18.8093 34.8387 19.159 35.1551 19.4155L35.1896 19.444C35.4021 19.6162 35.5702 19.751 35.7418 19.8513C35.9199 19.9534 36.1265 20.0348 36.386 20.1345L36.4281 20.1512C36.8058 20.2966 37.3158 20.4938 37.6988 20.8773C38.0829 21.2609 38.28 21.7709 38.4255 22.1479L38.4415 22.1907C38.5425 22.4508 38.6238 22.658 38.7265 22.8355L38.7271 22.8373C38.8263 23.0107 38.9623 23.1817 39.1374 23.3978L39.1647 23.4316C39.4194 23.7463 39.7644 24.172 39.9069 24.7058C40.0458 25.2224 39.9621 25.7556 39.8998 26.1528L39.8927 26.1985C39.8487 26.4782 39.8149 26.7056 39.8149 26.9199C39.8149 27.1343 39.8487 27.3605 39.8921 27.6395L39.8956 27.6591C39.9277 27.8628 39.9645 28.0985 39.9776 28.3419L39.9924 28.4429C40.0043 28.523 40.0173 28.6032 40.031 28.6887L40.0381 28.735C40.1046 29.1447 40.1925 29.6933 40.05 30.2265L40.0494 30.2283C39.901 30.7733 39.5477 31.2092 39.2853 31.5333L39.2579 31.5672C39.084 31.7821 38.9462 31.9531 38.8441 32.1283C38.7402 32.3094 38.6577 32.5202 38.5561 32.782L38.5401 32.8248C38.3917 33.2107 38.1922 33.7284 37.8003 34.1203C37.4084 34.5122 36.8901 34.7117 36.5041 34.8601L36.4626 34.8768C36.1989 34.9777 35.9882 35.0608 35.8065 35.1647C35.6301 35.2674 35.4568 35.4064 35.2394 35.5833L35.205 35.6112C34.8844 35.8725 34.4509 36.2258 33.9065 36.37C33.3816 36.5125 32.8395 36.427 32.4352 36.3641L32.3888 36.3564C32.1056 36.3124 31.8747 36.2774 31.6568 36.2774C31.4365 36.2774 31.2037 36.3118 30.9199 36.3552L30.8742 36.3623C30.4698 36.4253 29.9313 36.5084 29.4094 36.3706L29.4047 36.3694C28.8596 36.221 28.4238 35.8677 28.1002 35.6053L28.0663 35.578C27.8514 35.404 27.6798 35.2668 27.5053 35.1641C27.3236 35.0602 27.1134 34.9777 26.8509 34.8768L26.8088 34.8601C26.4228 34.7117 25.9045 34.5122 25.5132 34.1203C25.1213 33.7284 24.9218 33.2101 24.7734 32.8248L24.7568 32.782C24.6558 32.5196 24.5727 32.3088 24.4688 32.1271C24.3655 31.9502 24.2266 31.7768 24.0502 31.5601L24.0217 31.525C23.7605 31.2044 23.4072 30.771 23.2635 30.2259C23.1246 29.7123 23.2083 29.1773 23.2694 28.7819L23.2772 28.7356C23.2926 28.6353 23.3068 28.542 23.3199 28.4494L23.3365 28.3247C23.3508 28.0896 23.3864 27.8598 23.4173 27.6615L23.4208 27.6413C23.4642 27.3623 23.498 27.1348 23.498 26.9199C23.498 26.7056 23.4642 26.4782 23.4208 26.1985L23.4131 26.1528C23.3514 25.7562 23.2677 25.2242 23.4054 24.7082C23.5461 24.1679 23.8953 23.738 24.1523 23.4215L24.1803 23.3871C24.3524 23.1745 24.4878 23.0059 24.5876 22.8349C24.6897 22.6568 24.7716 22.4502 24.8714 22.1907L24.888 22.1485C25.0335 21.7709 25.23 21.2609 25.6142 20.8773C25.9977 20.4938 26.5078 20.2966 26.8848 20.1512L26.9275 20.1345C27.187 20.0342 27.3942 19.9528 27.5723 19.8507L27.5741 19.8495C27.7475 19.7504 27.9185 19.6144 28.1346 19.4393L28.1685 19.4119C28.4826 19.1572 28.9083 18.8123 29.4427 18.6698C29.9592 18.5308 30.4924 18.6145 30.889 18.6769Z" fill="#B4ACBC"/>
<path d="M39.2211 26.9199C39.2211 26.2252 39.5061 25.5009 39.3339 24.8596C39.1558 24.1946 38.5442 23.7137 38.2117 23.1318C37.8733 22.544 37.7546 21.7721 37.2796 21.2971C36.8046 20.8221 36.0327 20.7034 35.4449 20.3649C34.863 20.0265 34.3821 19.4149 33.7171 19.2427C33.0758 19.0705 32.3514 19.3555 31.6567 19.3555C30.9621 19.3555 30.2377 19.0705 29.5964 19.2427C28.9314 19.4209 28.4505 20.0324 27.8686 20.3649C27.2808 20.7034 26.5089 20.8221 26.0339 21.2971C25.5589 21.7721 25.4402 22.544 25.1017 23.1318C24.7633 23.7137 24.1517 24.1946 23.9796 24.8596C23.8074 25.5009 24.0924 26.2252 24.0924 26.9199C24.0924 27.6146 23.8074 28.339 23.9796 28.9802C24.1577 29.6452 24.7692 30.1262 25.1017 30.708C25.4402 31.2959 25.5589 32.0677 26.0339 32.5427C26.5089 33.0177 27.2808 33.1365 27.8686 33.4749C28.4505 33.8134 28.9314 34.4249 29.5964 34.5971C30.2377 34.7693 30.9621 34.4843 31.6567 34.4843C32.3514 34.4843 33.0758 34.7693 33.7171 34.5971C34.3821 34.419 34.863 33.8074 35.4449 33.4749C36.0327 33.1365 36.8046 33.0177 37.2796 32.5427C37.7546 32.0677 37.8733 31.2959 38.2117 30.708C38.5502 30.1262 39.1617 29.6452 39.3339 28.9802C39.5061 28.333 39.2211 27.6146 39.2211 26.9199Z" fill="white"/>
<path d="M35.0055 29.0574C34.4711 29.7462 33.7052 30.1855 32.8443 30.2924C32.0011 30.3993 31.1639 30.1796 30.4811 29.669C30.4693 29.663 30.4574 29.6512 30.4455 29.6452L30.4336 29.6333C29.9171 29.2296 29.6499 28.5824 29.7568 27.8937C29.7686 27.8224 29.7864 27.7452 29.8102 27.6799C29.896 27.4001 30.0478 27.1449 30.2527 26.9359C30.4577 26.7269 30.7098 26.5702 30.9879 26.4788C31.2659 26.3875 31.5619 26.3643 31.8508 26.411C32.1398 26.4578 32.4133 26.5733 32.6483 26.7477C32.6543 26.7477 32.6543 26.7537 32.6602 26.7537C32.7196 26.8012 32.773 26.8605 32.7968 26.9377C32.8621 27.1218 32.7908 27.3177 32.6068 27.4187C32.4821 27.4899 32.3218 27.4662 32.203 27.3771L32.1971 27.3712L32.1793 27.3593C31.8527 27.1158 31.4133 27.0624 31.0571 27.2702C30.6533 27.5018 30.4574 27.9174 30.5108 28.339C30.5464 28.6121 30.683 28.8555 30.8968 29.0277L30.9086 29.0337C30.9146 29.0396 30.9264 29.0455 30.9383 29.0574C31.4608 29.4493 32.0961 29.6155 32.7433 29.5324C33.4024 29.4493 33.9902 29.1108 34.3939 28.5883C34.8036 28.0599 34.9818 27.4008 34.8927 26.7358C34.8096 26.1243 34.4949 25.578 34.0318 25.1683L33.9546 25.103L33.9486 25.0971C33.1269 24.4623 32.0874 24.1784 31.0571 24.3074C30.5454 24.3702 30.0514 24.5344 29.6038 24.7903C29.1563 25.0461 28.7642 25.3886 28.4505 25.7977C28.0111 26.3677 27.738 27.0327 27.6549 27.7274C27.6371 27.8996 27.5064 28.0362 27.3343 28.0658H27.3283C27.2705 28.0753 27.2114 28.0713 27.1554 28.0542C27.0994 28.037 27.0482 28.0072 27.0056 27.9669C26.9631 27.9267 26.9304 27.8772 26.9102 27.8222C26.89 27.7673 26.8827 27.7084 26.8889 27.6502C26.9879 26.8024 27.3164 25.9977 27.8389 25.3227C28.2143 24.8338 28.6833 24.4245 29.2185 24.1187C29.7536 23.8129 30.3443 23.6167 30.9561 23.5415C32.1733 23.3871 33.3786 23.7077 34.3583 24.438C34.3795 24.452 34.3994 24.4679 34.4177 24.4855L34.4296 24.4974C35.1124 25.0318 35.5458 25.7918 35.6527 26.6527C35.7655 27.5196 35.5339 28.3746 35.0055 29.0574Z" fill="#FF3156"/>
<rect x="138.681" y="12.6913" width="46.0683" height="10.3757" rx="4" transform="rotate(11.5326 138.681 12.6913)" fill="#FF3156"/>
<path d="M153.619 22.2885C153.338 22.4652 153.028 22.6225 152.69 22.7603C152.357 22.8939 152.09 22.9399 151.886 22.8983C151.645 22.8493 151.563 22.6393 151.639 22.2682C151.719 21.8763 151.946 21.4708 152.32 21.0518C152.695 20.6276 153.129 20.2888 153.621 20.0355C154.119 19.7833 154.559 19.6961 154.94 19.7739C155.144 19.8155 155.23 19.912 155.199 20.0636C155.146 20.3249 154.916 20.5855 154.509 20.8454C154.471 20.8703 154.392 20.9113 154.272 20.9684C154.151 21.0255 154.07 21.0497 154.028 21.0412C154.002 21.0359 153.992 21.0201 153.997 20.994L154.035 20.9283C154.32 20.5999 154.482 20.339 154.521 20.1457C154.543 20.0412 154.519 19.982 154.451 19.9681C154.289 19.9351 154.05 20.0523 153.735 20.3199C153.425 20.5833 153.137 20.9002 152.871 21.2705C152.606 21.6355 152.45 21.9356 152.402 22.1708C152.363 22.3589 152.412 22.4668 152.548 22.4946C152.783 22.5425 153.113 22.4329 153.538 22.1658C153.867 21.9662 154.35 21.624 154.988 21.1391C155.007 21.1266 155.022 21.1214 155.032 21.1235C155.043 21.1257 155.046 21.1372 155.041 21.1581C155.021 21.2574 154.962 21.3461 154.865 21.4241C154.39 21.7737 153.975 22.0618 153.619 22.2885ZM157.759 23.4108C157.244 23.7195 156.905 23.8573 156.743 23.8242C156.67 23.8093 156.642 23.76 156.659 23.6764C156.681 23.5719 156.758 23.4216 156.89 23.2254C157.028 23.0304 157.16 22.8614 157.287 22.7186L157.478 22.5044C157.506 22.4721 157.522 22.4507 157.524 22.4403C157.526 22.4298 157.522 22.4235 157.511 22.4214C157.49 22.4171 157.445 22.4379 157.376 22.4836C157.184 22.6241 156.966 22.7728 156.722 22.9298C156.484 23.0826 156.291 23.2011 156.143 23.2853L155.931 23.4053C155.695 23.5205 155.522 23.5669 155.412 23.5445C155.297 23.521 155.258 23.4204 155.294 23.2428C155.313 23.1539 155.366 23.0234 155.456 22.8512C155.54 22.6779 155.602 22.5625 155.641 22.5051C155.821 22.237 156.028 21.9826 156.262 21.7419C156.501 21.5023 156.769 21.2821 157.066 21.0814C157.364 20.8754 157.691 20.7271 158.047 20.6365C158.408 20.5469 158.764 20.5378 159.114 20.6092C159.407 20.6689 159.544 20.7432 159.526 20.8321C159.515 20.8843 159.444 20.8971 159.314 20.8705C158.833 20.7724 158.339 20.8865 157.831 21.213C157.33 21.5353 156.895 21.9363 156.525 22.416C156.422 22.5474 156.36 22.6627 156.34 22.762C156.328 22.8195 156.34 22.852 156.377 22.8594C156.44 22.8722 156.53 22.8443 156.647 22.7758C156.722 22.7311 156.821 22.6724 156.944 22.5996C157.073 22.528 157.285 22.3834 157.58 22.1659C157.875 21.9485 158.116 21.7392 158.304 21.538C158.333 21.5005 158.375 21.4573 158.428 21.4083C158.487 21.3604 158.589 21.3022 158.733 21.2338C158.879 21.1601 159.015 21.136 159.14 21.1616C159.208 21.1755 159.238 21.2007 159.231 21.2373C159.229 21.2477 159.217 21.2644 159.196 21.2873C159.167 21.3249 159.085 21.4171 158.952 21.5641C158.824 21.7121 158.702 21.8534 158.588 21.9879C158.474 22.1171 158.352 22.261 158.222 22.4195C158.093 22.5727 157.987 22.7062 157.904 22.8199C157.826 22.9346 157.783 23.0129 157.774 23.0547C157.768 23.0861 157.778 23.1044 157.804 23.1097C157.882 23.1257 158.104 23.0131 158.469 22.7719C158.748 22.5784 159.077 22.3381 159.457 22.0509C159.476 22.0384 159.49 22.0332 159.501 22.0353C159.511 22.0375 159.514 22.049 159.51 22.0699C159.49 22.1692 159.431 22.2579 159.333 22.3359C158.705 22.801 158.18 23.1593 157.759 23.4108ZM162.791 23.7192C163.056 23.5445 163.41 23.2876 163.855 22.9483C163.874 22.9358 163.889 22.9307 163.899 22.9328C163.909 22.9349 163.913 22.9464 163.908 22.9673C163.888 23.0666 163.829 23.1553 163.732 23.2334C163.257 23.583 162.842 23.8711 162.486 24.0977C162.454 24.1185 162.394 24.158 162.306 24.2163C162.224 24.2703 162.158 24.314 162.108 24.3473C162.059 24.3753 161.993 24.4164 161.911 24.4705C161.831 24.5193 161.763 24.5572 161.709 24.5842C161.654 24.6112 161.594 24.6397 161.528 24.6698C161.468 24.6957 161.413 24.7117 161.363 24.7178C161.317 24.7302 161.278 24.7332 161.247 24.7268C161.153 24.7076 161.123 24.6118 161.159 24.4393C161.197 24.2512 161.285 24.0188 161.423 23.7422C161.567 23.4666 161.7 23.238 161.824 23.0565L162.003 22.7826C162.01 22.7733 162.015 22.7633 162.017 22.7529C162.019 22.7424 162.015 22.7361 162.005 22.734L161.954 22.7401C161.715 22.8982 161.463 23.0807 161.197 23.2879C160.938 23.4908 160.739 23.6542 160.599 23.7782L160.39 23.9641C160.252 24.1047 160.101 24.2208 159.935 24.3122C159.775 24.4046 159.658 24.4434 159.585 24.4285C159.533 24.4178 159.513 24.3785 159.527 24.3106C159.548 24.2113 159.627 24.0641 159.764 23.8691C159.902 23.674 160.035 23.5025 160.163 23.3544L160.356 23.1324L161.917 21.3201C163.32 19.7011 164.317 18.6418 164.909 18.142C165.108 17.9702 165.238 17.8907 165.301 17.9035C165.327 17.9088 165.336 17.9324 165.327 17.9742C165.304 18.0892 165.174 18.2968 164.939 18.5971C163.816 19.9138 163.036 20.8244 162.601 21.329C161.752 22.3152 161.244 22.9 161.076 23.0834L161.07 23.1148C161.066 23.1304 161.07 23.1394 161.08 23.1415C161.091 23.1436 161.109 23.1364 161.134 23.1197L161.584 22.7951C161.889 22.5798 162.164 22.391 162.41 22.2288C162.655 22.0666 162.923 21.9144 163.213 21.7722C163.505 21.6248 163.71 21.5634 163.831 21.5879C163.914 21.605 163.943 21.6762 163.918 21.8017C163.903 21.8748 163.854 21.9818 163.77 22.1227C163.687 22.2636 163.619 22.3287 163.567 22.318C163.546 22.3138 163.533 22.2839 163.528 22.2285C163.529 22.0925 163.466 22.0117 163.341 21.9861C163.163 21.9499 162.964 22.0861 162.743 22.3949C162.523 22.6984 162.35 23.0031 162.222 23.3091C162.095 23.6098 162.021 23.8151 161.998 23.9248C161.975 24.0398 161.992 24.1031 162.049 24.1149C162.096 24.1245 162.162 24.108 162.247 24.0654C162.338 24.0187 162.444 23.9532 162.565 23.869C162.691 23.7858 162.766 23.7359 162.791 23.7192ZM166.943 23.0314C167.033 22.9136 167.088 22.805 167.108 22.7057C167.125 22.6221 167.107 22.575 167.055 22.5643C167.024 22.5579 166.985 22.5609 166.939 22.5733C166.899 22.5815 166.867 22.5939 166.841 22.6106L166.796 22.6339C166.605 22.7419 166.349 22.959 166.026 23.2852C165.71 23.6071 165.541 23.8204 165.52 23.9249C165.516 23.9458 165.519 23.9573 165.529 23.9594C165.561 23.9658 165.634 23.9536 165.749 23.9226C165.87 23.8928 166.049 23.8014 166.287 23.6486C166.53 23.4968 166.749 23.2911 166.943 23.0314ZM166.224 24.7545C166.554 24.5549 167.037 24.2127 167.675 23.7277C167.694 23.7153 167.708 23.7101 167.719 23.7122C167.729 23.7144 167.732 23.7259 167.728 23.7468C167.708 23.8461 167.649 23.9347 167.551 24.0128C167.077 24.3624 166.662 24.6505 166.306 24.8772C166.041 25.0519 165.737 25.2102 165.392 25.3521C165.048 25.4889 164.777 25.537 164.579 25.4965C164.338 25.4474 164.252 25.2557 164.321 24.9212C164.434 24.3673 164.756 23.8288 165.287 23.3058C165.824 22.7839 166.383 22.4707 166.965 22.3663C167.209 22.3181 167.422 22.3126 167.605 22.3499C167.809 22.3915 167.894 22.4933 167.861 22.6553C167.799 22.9584 167.514 23.2622 167.006 23.5667C166.497 23.8712 165.956 24.0709 165.381 24.166C165.359 24.1669 165.337 24.1815 165.315 24.2096C165.193 24.4079 165.115 24.5906 165.081 24.7579C165.042 24.946 165.094 25.0544 165.235 25.0832C165.459 25.1291 165.789 25.0195 166.224 24.7545Z" fill="white"/>
</svg>
