<svg width="111" height="111" viewBox="0 0 111 111" fill="none" xmlns="http://www.w3.org/2000/svg">
<g clip-path="url(#clip0_0_32)">
<path d="M3.06622 48.7257C2.893 51.1997 2.8244 53.7091 2.96281 56.2483C4.17945 78.5687 17.4637 97.3354 36.1272 106.649L39.1175 99.3385L36.4644 50.6637L32.5127 47.1206L3.06622 48.7257ZM107.603 46.7861C107.399 43.0387 103.447 39.4956 99.6996 39.6998L69.7412 41.3328C71.1961 33.7365 72.6726 26.1596 72.4684 22.4122C72.0598 14.9175 67.9051 7.64748 65.9389 5.86514C65.8957 5.82641 63.9739 4.10326 60.2265 4.30753C54.6157 4.61336 54.9216 10.2242 54.9216 10.2242C54.9272 10.3266 53.5682 19.6839 53.7725 23.4313C53.9767 27.1787 47.2979 42.5562 43.7548 46.5078L40.109 48.5755L42.9665 100.998L46.8154 102.657L87.9955 100.412C95.4902 100.004 99.0333 96.0521 98.8291 92.3047C98.6248 88.5573 94.6732 85.0142 90.9258 85.2185C98.4206 84.81 101.964 80.8583 101.759 77.111C101.555 73.3636 97.6035 69.8205 93.8561 70.0248C101.351 69.6162 104.894 65.6646 104.69 61.9172C104.485 58.1699 100.534 54.6268 96.7865 54.831C104.264 54.4851 107.807 50.5334 107.603 46.7861Z" fill="#FF637F"/>
</g>
<defs>
<clipPath id="clip0_0_32">
<rect width="105" height="105" fill="white" transform="translate(0.220337 5.9353) rotate(-3.12)"/>
</clipPath>
</defs>
</svg>
