<svg width="128" height="128" viewBox="0 0 128 128" fill="none" xmlns="http://www.w3.org/2000/svg">
<path d="M94.7106 16.5079L98.8065 35.6133L116.818 43.5949L108.933 61.5506L118.773 78.5403L101.586 88.4404L99.5909 107.878L80.0037 105.891L66.9253 120.424L52.2839 107.202L33.1867 111.447L29.0327 92.1948L11.1242 84.2577L19.0585 66.2993L9.27729 49.4567L26.3087 39.4649L28.3119 20.1773L47.8074 22.3194L60.9221 7.53365L75.5054 20.6093L94.7106 16.5079ZM50.1578 39.7172C48.1716 39.8255 46.3098 40.7183 44.9819 42.1993C43.654 43.6803 42.9688 45.6281 43.0771 47.6143C43.1854 49.6005 44.0782 51.4623 45.5592 52.7902C47.0402 54.1181 48.988 54.8033 50.9742 54.695C52.9604 54.5867 54.8222 53.6939 56.1501 52.2129C57.478 50.7319 58.1631 48.7841 58.0549 46.7979C57.9466 44.8117 57.0538 42.9499 55.5728 41.622C54.0918 40.2941 52.144 39.609 50.1578 39.7172ZM77.0257 73.3047C75.0395 73.4129 73.1777 74.3058 71.8498 75.7868C70.5219 77.2677 69.8368 79.2156 69.945 81.2018C70.0533 83.1879 70.9461 85.0497 72.4271 86.3776C73.9081 87.7055 75.8559 88.3907 77.8421 88.2824C79.8283 88.1742 81.6901 87.2813 83.018 85.8003C84.3459 84.3194 85.031 82.3715 84.9228 80.3853C84.8145 78.3992 83.9217 76.5373 82.4407 75.2095C80.9597 73.8816 79.0119 73.1964 77.0257 73.3047ZM47.4372 89.9397L87.9859 44.7157L80.5627 38.0599L40.014 83.2839L47.4372 89.9397Z" fill="#FF637F"/>
</svg>
